# xmcd CD database file
# Generated: Mon Mar 4 23:26:28 2002 by KSCD
# 
# Track frame offsets:
#       150
#       23105
#       43835
#       64108
#       87608
#       108763
#       131452
#       151645
#       171558
#       194069
#       215878
#       234866
#       259007
#
# Disc length: 3722 seconds
#
# Revision: 2
# Processed by: cddbd v1.4PL0 Copyright (c) Steve Scherf et al.
# Submitted via: Kscd 1.3.2
#
DISCID=b60e880d
DTITLE=Alejandro Sanz - MTV Unplugged
DYEAR=1900
DGENRE=
TTITLE0=Cuando nadie me ve
TTITLE1=Y sólo se me ocurre amarte
TTITLE2=Amiga mía
TTITLE3=Se le apago la luz
TTITLE4=Quisiera ser
TTITLE5=Aprendiz
TTITLE6=Quiero morir en tu veneno
TTITLE7=Como te echo de menos
TTITLE8=Corazón partío
TTITLE9=Siempre es de noche
TTITLE10=Toca para mi
TTITLE11=Lo que fui es lo que soy
TTITLE12=Todo es de color
EXTD=
EXTT0=
EXTT1=
EXTT2=
EXTT3=
EXTT4=
EXTT5=
EXTT6=
EXTT7=
EXTT8=
EXTT9=
EXTT10=
EXTT11=
EXTT12=
PLAYORDER=
